<svg width="478" height="64" viewBox="0 0 478 64" fill="none" xmlns="http://www.w3.org/2000/svg">
<path d="M63.2057 34.8177C55.3724 42.6511 42.6484 42.6302 42.6484 42.6302C42.6484 42.6302 42.6276 29.9063 50.4661 22.073C58.2995 14.2344 71.0234 14.2552 71.0234 14.2552C71.0234 14.2552 71.0443 26.9792 63.2057 34.8177Z" fill="#262626"/>
<path d="M42.6432 44.3593H42.638C41.6849 44.3593 40.9141 43.5885 40.9141 42.6354C40.9141 42.0885 40.987 29.0989 49.237 20.8489C57.4661 12.6198 70.4661 12.526 71.0182 12.526C71.9714 12.526 72.7474 13.2968 72.7474 14.2552C72.7474 14.802 72.6745 27.7916 64.4245 36.0364C56.1953 44.2656 43.1901 44.3593 42.6432 44.3593ZM69.1849 16.0885C65.5339 16.4218 57.2057 17.7708 51.6797 23.2968C46.138 28.8385 44.7995 37.1458 44.4766 40.7968C48.1328 40.4687 56.4557 39.1198 61.9818 33.5937C67.5234 28.052 68.862 19.7448 69.1849 16.0885Z" fill="#F2F0EB"/>
<path d="M34.8281 22.073C42.6667 29.9063 42.6458 42.6302 42.6458 42.6302C42.6458 42.6302 29.9219 42.6511 22.0833 34.8177C14.25 26.9792 14.2656 14.2552 14.2656 14.2552C14.2656 14.2552 26.9896 14.2344 34.8281 22.073Z" fill="#262626"/>
<path d="M42.6484 44.3593C42.0964 44.3593 29.0911 44.2656 20.862 36.0364C12.6172 27.7916 12.5391 14.802 12.5391 14.2552C12.5443 13.302 13.3151 12.526 14.2682 12.526C14.8203 12.526 27.8255 12.6198 36.0547 20.8489C44.3047 29.0989 44.3776 42.0885 44.3776 42.6354C44.3776 43.5885 43.6016 44.3593 42.6484 44.3593ZM16.1068 16.0885C16.4349 19.75 17.7891 28.0677 23.3099 33.5937C28.8307 39.1145 37.1536 40.4687 40.8099 40.7968C40.4818 37.1406 39.1328 28.8177 33.6068 23.2968C28.0859 17.7708 19.763 16.4218 16.1068 16.0885Z" fill="#F2F0EB"/>
<path d="M22.5781 33.6199C33.6615 33.6199 42.6458 42.6303 42.6458 42.6303C42.6458 42.6303 33.6615 51.6459 22.5781 51.6459C11.4948 51.6459 2.51562 42.6303 2.51562 42.6303C2.51562 42.6303 11.4948 33.6199 22.5781 33.6199Z" fill="#262626"/>
<mask id="mask0_265_4370" style="mask-type:luminance" maskUnits="userSpaceOnUse" x="0" y="31" width="46" height="23">
<path d="M0.617188 31.6666H45.3307V53.5625H0.617188V31.6666Z" fill="white"/>
</mask>
<g mask="url(#mask0_265_4370)">
<path d="M22.5768 53.375C10.9102 53.375 1.67578 44.2396 1.28516 43.8542C0.613281 43.1771 0.613281 42.0885 1.28516 41.4115C1.67578 41.0208 10.9102 31.8906 22.5768 31.8906C34.2435 31.8906 43.4779 41.0208 43.8685 41.4115C44.5404 42.0885 44.5404 43.1771 43.8685 43.8542C43.4831 44.2396 34.2435 53.375 22.5768 53.375ZM5.10807 42.6302C7.92578 44.9844 14.7643 49.9115 22.5768 49.9115C30.4154 49.9115 37.2383 44.9896 40.0508 42.6354C37.2331 40.2813 30.3893 35.349 22.5768 35.349C14.7383 35.349 7.91536 40.276 5.10807 42.6302Z" fill="#F2F0EB"/>
</g>
<path d="M62.7109 51.6459C51.6328 51.6459 42.6484 42.6303 42.6484 42.6303C42.6484 42.6303 51.6328 33.6199 62.7109 33.6199C73.7943 33.6199 82.7786 42.6303 82.7786 42.6303C82.7786 42.6303 73.7943 51.6459 62.7109 51.6459Z" fill="#262626"/>
<mask id="mask1_265_4370" style="mask-type:luminance" maskUnits="userSpaceOnUse" x="40" y="31" width="45" height="23">
<path d="M40 31.6666H84.6198V53.5625H40V31.6666Z" fill="white"/>
</mask>
<g mask="url(#mask1_265_4370)">
<path d="M62.7083 53.375C51.0469 53.375 41.8073 44.2396 41.4219 43.8542C40.7448 43.1771 40.7448 42.0885 41.4219 41.4115C41.8073 41.0208 51.0469 31.8906 62.7083 31.8906C74.375 31.8906 83.6146 41.0208 84 41.4115C84.6719 42.0885 84.6719 43.1771 84 43.8542C83.6146 44.2396 74.375 53.375 62.7083 53.375ZM45.2396 42.6302C48.0573 44.9844 54.8958 49.9115 62.7083 49.9115C70.5469 49.9115 77.3698 44.9896 80.1823 42.6354C77.3646 40.2813 70.526 35.349 62.7083 35.349C54.8698 35.349 48.0521 40.276 45.2396 42.6302Z" fill="#F2F0EB"/>
</g>
<path d="M51.6536 22.5677C51.6536 33.651 42.6432 42.6302 42.6432 42.6302C42.6432 42.6302 33.6328 33.651 33.6328 22.5677C33.6328 11.4844 42.6432 2.5 42.6432 2.5C42.6432 2.5 51.6536 11.4844 51.6536 22.5677Z" fill="#262626"/>
<mask id="mask2_265_4370" style="mask-type:luminance" maskUnits="userSpaceOnUse" x="30" y="0" width="25" height="45">
<path d="M30.6641 0.5625H54.6641V45H30.6641V0.5625Z" fill="white"/>
</mask>
<g mask="url(#mask2_265_4370)">
<path d="M42.6458 44.3593C42.2031 44.3593 41.7604 44.1927 41.4219 43.8593C41.0365 43.4687 31.9062 34.2343 31.9062 22.5677C31.9062 10.901 41.0365 1.66663 41.4219 1.276C42.099 0.604126 43.1927 0.604126 43.8646 1.276C44.2552 1.66663 53.3854 10.901 53.3854 22.5677C53.3854 34.2343 44.2552 43.4687 43.8646 43.8593C43.526 44.1927 43.0885 44.3593 42.6458 44.3593ZM42.6458 5.09371C40.2969 7.91142 35.3646 14.7552 35.3646 22.5677C35.3646 30.4062 40.2917 37.2291 42.6406 40.0364C44.9948 37.2187 49.9271 30.3802 49.9271 22.5677C49.9271 14.7291 45 7.90621 42.6458 5.09371Z" fill="#F2F0EB"/>
</g>
<path d="M112.854 51.3542C111.354 51.3542 109.698 51.1146 107.896 50.6458C106.104 50.1875 104.38 49.3542 102.729 48.1458C101.089 46.9271 99.7344 45.2031 98.6667 42.9792C97.5938 40.7448 97.0625 37.8854 97.0625 34.3958V11.4167C97.0625 10.3229 96.6042 9.5625 95.6875 9.14583C94.7708 8.71875 93.6875 8.41667 92.4375 8.25V7.9375H106.667V8.25C105.401 8.41667 104.313 8.71875 103.396 9.14583C102.49 9.5625 102.042 10.3229 102.042 11.4167V35.6042C102.042 38.2448 102.464 40.4688 103.313 42.2708C104.156 44.0625 105.24 45.5 106.563 46.5833C107.88 47.6563 109.255 48.4323 110.688 48.9167C112.13 49.4063 113.443 49.6458 114.625 49.6458C115.792 49.6458 117.094 49.4063 118.542 48.9167C119.984 48.4323 121.375 47.6354 122.708 46.5208C124.042 45.4115 125.13 43.9531 125.979 42.1458C126.839 40.3438 127.271 38.1198 127.271 35.4792V19.4375C127.271 16.4792 127.047 14.224 126.604 12.6667C126.156 11.099 125.547 10.0156 124.771 9.41667C124.005 8.80729 123.094 8.45833 122.042 8.375V8.0625H133.167V8.375C132.552 8.45833 131.964 8.61458 131.396 8.83333C130.823 9.05729 130.323 9.47917 129.896 10.1042C129.479 10.7292 129.146 11.6823 128.896 12.9583C128.656 14.2396 128.542 15.9948 128.542 18.2292V34.2708C128.542 38.2031 127.813 41.4271 126.354 43.9375C124.896 46.4531 122.979 48.3229 120.604 49.5417C118.24 50.75 115.656 51.3542 112.854 51.3542Z" fill="#F2F0EB"/>
<path d="M150.742 20.6458C154.336 20.6458 157.31 21.2812 159.659 22.5416C162.018 23.7916 163.773 25.5155 164.93 27.7083C166.081 29.8905 166.659 32.3853 166.659 35.1874C166.659 38.1041 166.023 40.7499 164.763 43.1249C163.513 45.4895 161.68 47.3749 159.263 48.7916C156.857 50.2083 153.893 50.9166 150.367 50.9166C148.909 50.9166 147.586 50.802 146.409 50.5833C145.242 50.3645 144.128 50.0728 143.076 49.7083V57.7916C143.076 59.4166 143.273 60.6093 143.68 61.3749C144.081 62.151 144.971 62.8437 146.346 63.4583V63.6249L135.951 61.6249V61.4374C137.003 61.1562 137.727 60.6926 138.117 60.0416C138.503 59.3853 138.701 58.3124 138.701 56.8124V24.4166C138.294 24.1405 137.727 23.9062 136.992 23.7083C136.268 23.4999 135.497 23.3749 134.68 23.3333V23.0833C137.93 22.1562 140.977 21.5155 143.826 21.1666C146.685 20.8228 148.992 20.6458 150.742 20.6458ZM152.555 49.8333C154.138 49.8333 155.638 49.4947 157.055 48.8124C158.471 48.1197 159.617 46.9114 160.492 45.1874C161.367 43.4687 161.805 41.1041 161.805 38.1041C161.805 34.6614 161.242 31.703 160.117 29.2291C159.003 26.7603 157.518 24.8437 155.659 23.4791C153.794 22.1197 151.685 21.4374 149.326 21.4374C148.31 21.4374 147.211 21.5624 146.034 21.8124C144.867 22.052 143.878 22.3697 143.076 22.7708V46.5416C144.409 47.4478 145.888 48.2239 147.513 48.8749C149.138 49.5155 150.815 49.8333 152.555 49.8333Z" fill="#F2F0EB"/>
<path d="M177.492 44.6041C177.492 46.2291 177.69 47.5 178.096 48.4166C178.497 49.3229 179.451 49.9323 180.951 50.25V50.5H172.555L173.117 46.7291V10.375C173.117 9.16663 172.81 8.56246 172.201 8.56246C171.586 8.56246 170.352 8.84371 168.492 9.39579V9.04163L177.784 4.60413L177.492 6.79163V44.6041Z" fill="#F2F0EB"/>
<path d="M187.948 13.3541C187.099 13.3541 186.391 13.0728 185.823 12.4999C185.25 11.9322 184.969 11.2239 184.969 10.3749C184.969 9.57284 185.25 8.88533 185.823 8.31242C186.391 7.74471 187.099 7.45825 187.948 7.45825C188.75 7.45825 189.438 7.74471 190.01 8.31242C190.578 8.88533 190.865 9.57284 190.865 10.3749C190.865 11.2239 190.578 11.9322 190.01 12.4999C189.438 13.0728 188.75 13.3541 187.948 13.3541ZM185.823 50.4999L186.177 46.3124V22.9583C185.771 22.6822 185.219 22.4478 184.51 22.2499C183.802 22.0416 183.12 21.9166 182.469 21.8749V21.6249L190.865 20.7083L190.552 25.2083V44.8541C190.552 46.4687 190.724 47.6614 191.073 48.4374C191.417 49.203 192.036 49.8905 192.927 50.4999H185.823Z" fill="#F2F0EB"/>
<path d="M212.151 5.9375C209.552 5.9375 207.656 7.04167 206.464 9.25C205.266 11.4583 204.672 14.6979 204.672 18.9583V21.0208H215.005L214.693 22.4792H204.672V44.6042C204.672 46.2292 204.891 47.5 205.339 48.4167C205.781 49.3229 206.911 49.9323 208.734 50.25V50.5H199.318L200.297 46.7292V25.1458C200.297 23.7292 199.88 22.9323 199.047 22.75C198.214 22.5729 197.089 22.4792 195.672 22.4792L195.964 21.0208H200.297V19.5625C200.297 17.0521 200.766 14.8125 201.714 12.8542C202.672 10.8854 203.953 9.21875 205.568 7.85417C207.193 6.49479 209.016 5.47396 211.047 4.79167C213.073 4.09896 215.141 3.75 217.255 3.75C218.547 3.75 219.901 3.9375 221.318 4.3125C222.734 4.67708 224.62 5.41667 226.984 6.54167L222.589 10.5C221.214 9.125 219.557 8.02083 217.63 7.1875C215.714 6.35417 213.885 5.9375 212.151 5.9375Z" fill="#F2F0EB"/>
<path d="M223.94 51.4791L220.648 49.9583L220.836 46.3125V17C220.836 15.7083 220.513 15.0416 219.878 15C219.253 14.9583 217.966 15.2239 216.023 15.7916V15.4166L225.69 10.9791L225.211 13.2916V21.0208H232.503L232.211 22.4791H225.211V49.3958L231.961 49.1666V49.3958L225.211 51.4791H223.94Z" fill="#F2F0EB"/>
<path d="M286.367 7.9375L282.471 20.4792H282.242C282.643 16.3437 282.143 13.3698 280.742 11.5625C279.336 9.76042 277.143 8.85417 274.159 8.85417H268.492V46.4167C268.492 47.8073 268.997 48.7448 270.013 49.2292C271.023 49.7188 272.461 50.0365 274.326 50.1875V50.5H257.68V50.1875C259.539 50.0365 260.977 49.7188 261.992 49.2292C263.003 48.7448 263.513 47.8073 263.513 46.4167V8.85417H261.201C258.893 8.85417 256.992 9.07813 255.492 9.52083C253.992 9.96875 252.732 10.6458 251.721 11.5625C250.706 12.4792 249.805 13.6823 249.013 15.1667C248.221 16.6406 247.378 18.4115 246.492 20.4792H246.242L248.242 7.9375H286.367Z" fill="#F2F0EB"/>
<path d="M312.688 50.5L313.063 46.3125V31.8333C313.063 29.4895 312.688 27.6979 311.938 26.4583C311.188 25.2239 310.25 24.3645 309.125 23.875C308.01 23.3906 306.896 23.1458 305.771 23.1458C303.865 23.1458 302.109 23.6145 300.5 24.5416C298.901 25.4739 297.193 26.552 295.375 27.7708V44.6041C295.375 46.2291 295.573 47.5 295.979 48.4166C296.38 49.3229 297.333 49.9323 298.833 50.25V50.5H290.438L291 46.7291V10.375C291 9.16663 290.693 8.56246 290.083 8.56246C289.469 8.56246 288.234 8.84371 286.375 9.39579V9.04163L295.667 4.60413L295.375 6.79163V26.4791C296.625 25.677 297.943 24.8229 299.333 23.9166C300.734 23 302.234 22.2291 303.833 21.6041C305.443 20.9687 307.135 20.6458 308.917 20.6458C310.26 20.6458 311.589 20.9323 312.896 21.5C314.214 22.0729 315.297 23.1458 316.146 24.7291C317.005 26.3125 317.438 28.6406 317.438 31.7083V44.8541C317.438 46.4687 317.609 47.6614 317.958 48.4375C318.302 49.2031 318.922 49.8906 319.813 50.5H312.688Z" fill="#F2F0EB"/>
<path d="M351.487 44.3541L351.779 44.6041C350.888 46.3124 349.284 47.7916 346.966 49.0416C344.659 50.2916 341.971 50.9166 338.904 50.9166C336.346 50.9166 333.93 50.3853 331.654 49.3124C329.388 48.2447 327.555 46.6458 326.154 44.5208C324.763 42.3853 324.07 39.7395 324.07 36.5833C324.07 33.2916 324.831 30.4687 326.362 28.1041C327.904 25.7291 329.914 23.8958 332.404 22.6041C334.904 21.302 337.612 20.6458 340.529 20.6458C342.997 20.6458 345.049 21.0833 346.674 21.9583C348.299 22.8333 349.508 23.9114 350.299 25.1874C351.091 26.4687 351.487 27.7499 351.487 29.0416C351.487 30.3333 351.112 31.4166 350.362 32.2916C349.612 33.1666 348.487 33.6041 346.987 33.6041H328.799C328.841 36.2708 329.346 38.7291 330.32 40.9791C331.289 43.2291 332.664 45.0364 334.445 46.3958C336.237 47.7603 338.346 48.4374 340.779 48.4374C341.914 48.4374 343.195 48.2864 344.612 47.9791C346.029 47.677 347.372 47.2187 348.654 46.6041C349.93 45.9947 350.872 45.2447 351.487 44.3541ZM338.237 21.8124C335.555 21.8124 333.352 22.7603 331.633 24.6458C329.909 26.5208 328.966 29.1822 328.799 32.6249L345.341 32.4374C346.034 32.4374 346.497 32.078 346.737 31.3541C346.987 30.6197 346.997 29.7291 346.779 28.6874C346.555 27.6353 346.081 26.578 345.362 25.5208C344.654 24.4687 343.701 23.5833 342.508 22.8749C341.31 22.1666 339.888 21.8124 338.237 21.8124Z" fill="#F2F0EB"/>
<path d="M372.211 20.7083C372.737 20.7083 373.253 20.7655 373.753 20.8749C374.263 20.9739 374.805 21.1614 375.378 21.4374L370.628 29.0416H370.398C371.008 27.5833 371.273 26.4739 371.19 25.7083C371.107 24.9322 370.826 24.3905 370.357 24.0833C369.898 23.7812 369.362 23.6249 368.753 23.6249C367.654 23.6249 366.69 24.0208 365.857 24.8124C365.034 25.6041 364.346 26.6353 363.794 27.8958C363.253 29.1458 362.857 30.4791 362.607 31.8958V44.8541C362.607 46.4687 362.779 47.6614 363.128 48.4374C363.471 49.203 364.091 49.8905 364.982 50.4999H357.94L358.232 46.3124V22.9583C357.826 22.6822 357.273 22.4478 356.565 22.2499C355.857 22.0416 355.174 21.9166 354.523 21.8749V21.6249L362.919 20.7083L362.607 25.2083V27.1458H363.398C364.091 25.203 365.237 23.6458 366.836 22.4791C368.43 21.302 370.221 20.7083 372.211 20.7083Z" fill="#F2F0EB"/>
<path d="M406.435 45.5208C406.435 47.1353 406.607 48.3072 406.956 49.0416C407.299 49.7655 407.919 50.4322 408.81 51.0416V51.2291L400.539 49.3541C400.539 49.3541 400.544 49.3541 400.56 49.3541C400.586 49.3541 400.602 49.3333 400.602 49.2916C399.628 49.8228 398.529 50.2239 397.31 50.4999C396.102 50.776 394.789 50.9166 393.372 50.9166C390.648 50.9166 388.169 50.3749 385.935 49.2916C383.711 48.1978 381.956 46.6041 380.664 44.5208C379.372 42.427 378.727 39.8749 378.727 36.8749C378.727 33.9583 379.414 31.2812 380.789 28.8333C382.164 26.3749 384.237 24.3958 387.018 22.8958C389.794 21.3958 393.268 20.6458 397.435 20.6458C399.393 20.6458 401.065 20.8333 402.456 21.2083C403.857 21.5728 405.185 22.1353 406.435 22.8958V45.5208ZM383.581 33.7291C383.581 36.6041 384.154 39.2291 385.31 41.6041C386.461 43.9687 388.029 45.8489 390.018 47.2499C392.003 48.6562 394.232 49.3541 396.706 49.3541C398.008 49.3541 399.065 49.1562 399.872 48.7499C400.69 48.3333 401.357 47.8072 401.872 47.1666C401.997 46.5572 402.06 45.7447 402.06 44.7291V25.1458C401.211 24.2187 400.133 23.4322 398.831 22.7916C397.539 22.1405 396.003 21.8124 394.227 21.8124C390.935 21.8124 388.336 22.8958 386.435 25.0624C384.529 27.2291 383.581 30.1197 383.581 33.7291Z" fill="#F2F0EB"/>
<path d="M427.914 20.6458C431.508 20.6458 434.482 21.2812 436.831 22.5416C439.19 23.7916 440.945 25.5155 442.102 27.7083C443.253 29.8905 443.831 32.3853 443.831 35.1874C443.831 38.1041 443.195 40.7499 441.935 43.1249C440.685 45.4895 438.852 47.3749 436.435 48.7916C434.029 50.2083 431.065 50.9166 427.539 50.9166C426.081 50.9166 424.758 50.802 423.581 50.5833C422.414 50.3645 421.299 50.0728 420.247 49.7083V57.7916C420.247 59.4166 420.445 60.6093 420.852 61.3749C421.253 62.151 422.143 62.8437 423.518 63.4583V63.6249L413.122 61.6249V61.4374C414.174 61.1562 414.898 60.6926 415.289 60.0416C415.674 59.3853 415.872 58.3124 415.872 56.8124V24.4166C415.466 24.1405 414.898 23.9062 414.164 23.7083C413.44 23.4999 412.669 23.3749 411.852 23.3333V23.0833C415.102 22.1562 418.148 21.5155 420.997 21.1666C423.857 20.8228 426.164 20.6458 427.914 20.6458ZM429.727 49.8333C431.31 49.8333 432.81 49.4947 434.227 48.8124C435.643 48.1197 436.789 46.9114 437.664 45.1874C438.539 43.4687 438.977 41.1041 438.977 38.1041C438.977 34.6614 438.414 31.703 437.289 29.2291C436.174 26.7603 434.69 24.8437 432.831 23.4791C430.966 22.1197 428.857 21.4374 426.497 21.4374C425.482 21.4374 424.383 21.5624 423.206 21.8124C422.039 22.052 421.049 22.3697 420.247 22.7708V46.5416C421.581 47.4478 423.06 48.2239 424.685 48.8749C426.31 49.5155 427.987 49.8333 429.727 49.8333Z" fill="#F2F0EB"/>
<path d="M468.206 21.0208H477.581V21.2499C476.924 21.4999 476.315 21.8437 475.747 22.2708C475.174 22.6874 474.586 23.3645 473.977 24.2916C473.378 25.2239 472.69 26.5833 471.914 28.3749L461.227 53.7916C460.612 55.2499 459.935 56.651 459.185 57.9999C458.435 59.3593 457.445 60.4791 456.227 61.3541C455.018 62.2291 453.357 62.6666 451.247 62.6666L448.935 59.9791C451.445 59.9791 453.674 59.4791 455.622 58.4791C457.565 57.4895 459.044 55.8228 460.06 53.4791L461.414 50.3749L450.039 25.1458L447.789 21.0208H459.227V21.2499C458.211 21.3749 457.315 21.6614 456.539 22.1041C455.773 22.552 455.31 23.2603 455.143 24.2291C454.977 25.203 455.279 26.5624 456.06 28.3124L463.664 45.0833L470.768 28.3124C471.487 26.5624 471.758 25.2239 471.581 24.2916C471.398 23.3645 470.977 22.6874 470.31 22.2708C469.643 21.8437 468.94 21.4999 468.206 21.2499V21.0208Z" fill="#F2F0EB"/>
</svg>
